<mxfile host="app.diagrams.net" agent="Mozilla/5.0 (Windows NT 10.0; Win64; x64) AppleWebKit/537.36 (KHTML, like Gecko) Chrome/134.0.0.0 Safari/537.36" version="26.1.3">
  <diagram name="PÃ¡gina-1" id="Xy-GeDRkHfHyhW9W7Pxn">
    <mxGraphModel dx="3563" dy="1187" grid="0" gridSize="10" guides="1" tooltips="1" connect="1" arrows="1" fold="1" page="1" pageScale="1" pageWidth="827" pageHeight="1169" math="0" shadow="0">
      <root>
        <mxCell id="0" />
        <mxCell id="1" parent="0" />
        <mxCell id="l1wN7geITij2y17-V9La-55" style="edgeStyle=orthogonalEdgeStyle;rounded=0;orthogonalLoop=1;jettySize=auto;html=1;endArrow=none;startFill=0;fillColor=#0050ef;strokeColor=#001DBC;exitX=0.919;exitY=0.922;exitDx=0;exitDy=0;exitPerimeter=0;" parent="1" source="l1wN7geITij2y17-V9La-1" target="l1wN7geITij2y17-V9La-54" edge="1">
          <mxGeometry relative="1" as="geometry">
            <mxPoint x="-720" y="470" as="sourcePoint" />
          </mxGeometry>
        </mxCell>
        <mxCell id="l1wN7geITij2y17-V9La-1" value="Cliente" style="rounded=0;whiteSpace=wrap;html=1;fillColor=#b0e3e6;strokeColor=#0e8088;" parent="1" vertex="1">
          <mxGeometry x="-843" y="410" width="120" height="60" as="geometry" />
        </mxCell>
        <mxCell id="l1wN7geITij2y17-V9La-2" value="ID_Usuario" style="ellipse;whiteSpace=wrap;html=1;" parent="1" vertex="1">
          <mxGeometry x="-1083" y="400" width="130" height="40" as="geometry" />
        </mxCell>
        <mxCell id="l1wN7geITij2y17-V9La-3" value="Nombre" style="ellipse;whiteSpace=wrap;html=1;" parent="1" vertex="1">
          <mxGeometry x="-1083" y="480" width="130" height="40" as="geometry" />
        </mxCell>
        <mxCell id="l1wN7geITij2y17-V9La-4" value="Correo" style="ellipse;whiteSpace=wrap;html=1;" parent="1" vertex="1">
          <mxGeometry x="-1083" y="580" width="130" height="40" as="geometry" />
        </mxCell>
        <mxCell id="l1wN7geITij2y17-V9La-5" value="" style="endArrow=none;html=1;rounded=0;exitX=1;exitY=0.715;exitDx=0;exitDy=0;exitPerimeter=0;entryX=0;entryY=0.5;entryDx=0;entryDy=0;" parent="1" target="l1wN7geITij2y17-V9La-1" edge="1">
          <mxGeometry width="50" height="50" relative="1" as="geometry">
            <mxPoint x="-953" y="500" as="sourcePoint" />
            <mxPoint x="-813" y="571" as="targetPoint" />
          </mxGeometry>
        </mxCell>
        <mxCell id="l1wN7geITij2y17-V9La-6" value="" style="endArrow=none;html=1;rounded=0;exitX=1;exitY=0.715;exitDx=0;exitDy=0;exitPerimeter=0;entryX=0;entryY=1;entryDx=0;entryDy=0;" parent="1" target="l1wN7geITij2y17-V9La-1" edge="1">
          <mxGeometry width="50" height="50" relative="1" as="geometry">
            <mxPoint x="-953" y="600" as="sourcePoint" />
            <mxPoint x="-813" y="671" as="targetPoint" />
          </mxGeometry>
        </mxCell>
        <mxCell id="l1wN7geITij2y17-V9La-7" value="" style="endArrow=none;html=1;rounded=0;exitX=1;exitY=0.715;exitDx=0;exitDy=0;exitPerimeter=0;entryX=0;entryY=0;entryDx=0;entryDy=0;" parent="1" target="l1wN7geITij2y17-V9La-1" edge="1">
          <mxGeometry width="50" height="50" relative="1" as="geometry">
            <mxPoint x="-953" y="420" as="sourcePoint" />
            <mxPoint x="-813" y="491" as="targetPoint" />
          </mxGeometry>
        </mxCell>
        <mxCell id="l1wN7geITij2y17-V9La-59" style="edgeStyle=orthogonalEdgeStyle;rounded=0;orthogonalLoop=1;jettySize=auto;html=1;exitX=0;exitY=0.5;exitDx=0;exitDy=0;entryX=1;entryY=0.5;entryDx=0;entryDy=0;endArrow=none;startFill=0;fillColor=#0050ef;strokeColor=#001DBC;" parent="1" source="l1wN7geITij2y17-V9La-8" target="l1wN7geITij2y17-V9La-15" edge="1">
          <mxGeometry relative="1" as="geometry" />
        </mxCell>
        <mxCell id="l1wN7geITij2y17-V9La-70" style="edgeStyle=orthogonalEdgeStyle;rounded=0;orthogonalLoop=1;jettySize=auto;html=1;exitX=0.75;exitY=1;exitDx=0;exitDy=0;fillColor=#0050ef;strokeColor=#001DBC;endArrow=none;startFill=0;" parent="1" source="l1wN7geITij2y17-V9La-8" target="l1wN7geITij2y17-V9La-26" edge="1">
          <mxGeometry relative="1" as="geometry">
            <Array as="points">
              <mxPoint x="50" y="740" />
            </Array>
          </mxGeometry>
        </mxCell>
        <mxCell id="l1wN7geITij2y17-V9La-8" value="Compra" style="rounded=0;whiteSpace=wrap;html=1;fillColor=#b0e3e6;strokeColor=#0e8088;" parent="1" vertex="1">
          <mxGeometry x="-40" y="360" width="120" height="60" as="geometry" />
        </mxCell>
        <mxCell id="l1wN7geITij2y17-V9La-9" value="(FK) ID_Usuario" style="ellipse;whiteSpace=wrap;html=1;" parent="1" vertex="1">
          <mxGeometry x="210" y="340" width="130" height="40" as="geometry" />
        </mxCell>
        <mxCell id="l1wN7geITij2y17-V9La-10" value="MetodoPago" style="ellipse;whiteSpace=wrap;html=1;" parent="1" vertex="1">
          <mxGeometry x="210" y="420" width="130" height="40" as="geometry" />
        </mxCell>
        <mxCell id="l1wN7geITij2y17-V9La-11" value="Fecha" style="ellipse;whiteSpace=wrap;html=1;" parent="1" vertex="1">
          <mxGeometry x="210" y="500" width="130" height="40" as="geometry" />
        </mxCell>
        <mxCell id="l1wN7geITij2y17-V9La-58" style="edgeStyle=orthogonalEdgeStyle;rounded=0;orthogonalLoop=1;jettySize=auto;html=1;exitX=0;exitY=0.5;exitDx=0;exitDy=0;entryX=1;entryY=0;entryDx=0;entryDy=0;endArrow=none;startFill=0;fillColor=#0050ef;strokeColor=#001DBC;" parent="1" source="l1wN7geITij2y17-V9La-15" target="l1wN7geITij2y17-V9La-1" edge="1">
          <mxGeometry relative="1" as="geometry" />
        </mxCell>
        <mxCell id="l1wN7geITij2y17-V9La-15" value="Realiza" style="rhombus;whiteSpace=wrap;html=1;fillColor=#e6d0de;gradientColor=#d5739d;strokeColor=#996185;" parent="1" vertex="1">
          <mxGeometry x="-350" y="350" width="80" height="80" as="geometry" />
        </mxCell>
        <mxCell id="l1wN7geITij2y17-V9La-68" style="edgeStyle=orthogonalEdgeStyle;rounded=0;orthogonalLoop=1;jettySize=auto;html=1;exitX=1;exitY=0.5;exitDx=0;exitDy=0;entryX=0.5;entryY=1;entryDx=0;entryDy=0;endArrow=none;startFill=0;fillColor=#0050ef;strokeColor=#001DBC;" parent="1" source="l1wN7geITij2y17-V9La-16" target="l1wN7geITij2y17-V9La-8" edge="1">
          <mxGeometry relative="1" as="geometry" />
        </mxCell>
        <mxCell id="l1wN7geITij2y17-V9La-69" style="edgeStyle=orthogonalEdgeStyle;rounded=0;orthogonalLoop=1;jettySize=auto;html=1;exitX=0;exitY=0.5;exitDx=0;exitDy=0;entryX=1;entryY=0;entryDx=0;entryDy=0;endArrow=none;startFill=0;fillColor=#0050ef;strokeColor=#001DBC;" parent="1" source="l1wN7geITij2y17-V9La-16" target="l1wN7geITij2y17-V9La-17" edge="1">
          <mxGeometry relative="1" as="geometry" />
        </mxCell>
        <mxCell id="l1wN7geITij2y17-V9La-16" value="Genera" style="rhombus;whiteSpace=wrap;html=1;fillColor=#e6d0de;gradientColor=#d5739d;strokeColor=#996185;" parent="1" vertex="1">
          <mxGeometry x="-430" y="700" width="80" height="80" as="geometry" />
        </mxCell>
        <mxCell id="l1wN7geITij2y17-V9La-56" style="edgeStyle=orthogonalEdgeStyle;rounded=0;orthogonalLoop=1;jettySize=auto;html=1;exitX=1;exitY=1;exitDx=0;exitDy=0;entryX=0.5;entryY=1;entryDx=0;entryDy=0;endArrow=none;startFill=0;fillColor=#0050ef;strokeColor=#001DBC;" parent="1" source="l1wN7geITij2y17-V9La-17" target="l1wN7geITij2y17-V9La-54" edge="1">
          <mxGeometry relative="1" as="geometry">
            <Array as="points">
              <mxPoint x="-590" y="860" />
            </Array>
          </mxGeometry>
        </mxCell>
        <mxCell id="l1wN7geITij2y17-V9La-17" value="Factura" style="rounded=0;whiteSpace=wrap;html=1;fillColor=#b0e3e6;strokeColor=#0e8088;" parent="1" vertex="1">
          <mxGeometry x="-843" y="800" width="120" height="60" as="geometry" />
        </mxCell>
        <mxCell id="l1wN7geITij2y17-V9La-18" value="(FK) ID_Compra" style="ellipse;whiteSpace=wrap;html=1;" parent="1" vertex="1">
          <mxGeometry x="-1083" y="710" width="130" height="40" as="geometry" />
        </mxCell>
        <mxCell id="l1wN7geITij2y17-V9La-19" value="Fecha" style="ellipse;whiteSpace=wrap;html=1;" parent="1" vertex="1">
          <mxGeometry x="-1083" y="790" width="130" height="40" as="geometry" />
        </mxCell>
        <mxCell id="l1wN7geITij2y17-V9La-20" value="Total" style="ellipse;whiteSpace=wrap;html=1;" parent="1" vertex="1">
          <mxGeometry x="-1083" y="890" width="130" height="40" as="geometry" />
        </mxCell>
        <mxCell id="l1wN7geITij2y17-V9La-21" value="" style="endArrow=none;html=1;rounded=0;exitX=1;exitY=0.715;exitDx=0;exitDy=0;exitPerimeter=0;entryX=0;entryY=0.5;entryDx=0;entryDy=0;" parent="1" target="l1wN7geITij2y17-V9La-17" edge="1">
          <mxGeometry width="50" height="50" relative="1" as="geometry">
            <mxPoint x="-953" y="810" as="sourcePoint" />
            <mxPoint x="-813" y="881" as="targetPoint" />
          </mxGeometry>
        </mxCell>
        <mxCell id="l1wN7geITij2y17-V9La-22" value="" style="endArrow=none;html=1;rounded=0;exitX=1;exitY=0.715;exitDx=0;exitDy=0;exitPerimeter=0;entryX=0;entryY=1;entryDx=0;entryDy=0;" parent="1" target="l1wN7geITij2y17-V9La-17" edge="1">
          <mxGeometry width="50" height="50" relative="1" as="geometry">
            <mxPoint x="-953" y="910" as="sourcePoint" />
            <mxPoint x="-813" y="981" as="targetPoint" />
          </mxGeometry>
        </mxCell>
        <mxCell id="l1wN7geITij2y17-V9La-23" value="" style="endArrow=none;html=1;rounded=0;exitX=1;exitY=0.715;exitDx=0;exitDy=0;exitPerimeter=0;entryX=0;entryY=0;entryDx=0;entryDy=0;" parent="1" target="l1wN7geITij2y17-V9La-17" edge="1">
          <mxGeometry width="50" height="50" relative="1" as="geometry">
            <mxPoint x="-953" y="730" as="sourcePoint" />
            <mxPoint x="-813" y="801" as="targetPoint" />
          </mxGeometry>
        </mxCell>
        <mxCell id="l1wN7geITij2y17-V9La-24" value="&amp;nbsp;ID_Factura" style="ellipse;whiteSpace=wrap;html=1;" parent="1" vertex="1">
          <mxGeometry x="-1083" y="970" width="130" height="40" as="geometry" />
        </mxCell>
        <mxCell id="l1wN7geITij2y17-V9La-25" value="" style="endArrow=none;html=1;rounded=0;exitX=1;exitY=0.5;exitDx=0;exitDy=0;entryX=0.5;entryY=1;entryDx=0;entryDy=0;" parent="1" source="l1wN7geITij2y17-V9La-24" target="l1wN7geITij2y17-V9La-17" edge="1">
          <mxGeometry width="50" height="50" relative="1" as="geometry">
            <mxPoint x="-953" y="990" as="sourcePoint" />
            <mxPoint x="-783" y="780" as="targetPoint" />
          </mxGeometry>
        </mxCell>
        <mxCell id="l1wN7geITij2y17-V9La-71" style="edgeStyle=orthogonalEdgeStyle;rounded=0;orthogonalLoop=1;jettySize=auto;html=1;exitX=0.5;exitY=1;exitDx=0;exitDy=0;fillColor=#0050ef;strokeColor=#001DBC;endArrow=none;startFill=0;" parent="1" source="l1wN7geITij2y17-V9La-26" target="l1wN7geITij2y17-V9La-27" edge="1">
          <mxGeometry relative="1" as="geometry" />
        </mxCell>
        <mxCell id="l1wN7geITij2y17-V9La-26" value="Contiene" style="rhombus;whiteSpace=wrap;html=1;fillColor=#e6d0de;gradientColor=#d5739d;strokeColor=#996185;" parent="1" vertex="1">
          <mxGeometry x="250" y="700" width="80" height="80" as="geometry" />
        </mxCell>
        <mxCell id="l1wN7geITij2y17-V9La-73" style="edgeStyle=orthogonalEdgeStyle;rounded=0;orthogonalLoop=1;jettySize=auto;html=1;exitX=0;exitY=0.5;exitDx=0;exitDy=0;fillColor=#0050ef;strokeColor=#001DBC;endArrow=none;startFill=0;" parent="1" source="l1wN7geITij2y17-V9La-27" target="l1wN7geITij2y17-V9La-39" edge="1">
          <mxGeometry relative="1" as="geometry" />
        </mxCell>
        <mxCell id="l1wN7geITij2y17-V9La-27" value="DetalleCompra" style="rounded=0;whiteSpace=wrap;html=1;fillColor=#b0e3e6;strokeColor=#0e8088;" parent="1" vertex="1">
          <mxGeometry x="-40" y="940" width="120" height="60" as="geometry" />
        </mxCell>
        <mxCell id="l1wN7geITij2y17-V9La-28" value="Precio Unitario" style="ellipse;whiteSpace=wrap;html=1;" parent="1" vertex="1">
          <mxGeometry x="220" y="940" width="130" height="40" as="geometry" />
        </mxCell>
        <mxCell id="l1wN7geITij2y17-V9La-29" value="&amp;nbsp;ID_Detalle" style="ellipse;whiteSpace=wrap;html=1;" parent="1" vertex="1">
          <mxGeometry x="220" y="1020" width="130" height="40" as="geometry" />
        </mxCell>
        <mxCell id="l1wN7geITij2y17-V9La-30" value="(FK) ID_Compra" style="ellipse;whiteSpace=wrap;html=1;" parent="1" vertex="1">
          <mxGeometry x="220" y="1100" width="130" height="40" as="geometry" />
        </mxCell>
        <mxCell id="l1wN7geITij2y17-V9La-31" value="Cantidad" style="ellipse;whiteSpace=wrap;html=1;" parent="1" vertex="1">
          <mxGeometry x="220" y="1180" width="130" height="40" as="geometry" />
        </mxCell>
        <mxCell id="l1wN7geITij2y17-V9La-32" value="(FK) ID_Instrumento" style="ellipse;whiteSpace=wrap;html=1;" parent="1" vertex="1">
          <mxGeometry x="240" y="1260" width="130" height="40" as="geometry" />
        </mxCell>
        <mxCell id="l1wN7geITij2y17-V9La-33" value="" style="endArrow=none;html=1;rounded=0;exitX=1;exitY=0;exitDx=0;exitDy=0;" parent="1" source="l1wN7geITij2y17-V9La-27" target="l1wN7geITij2y17-V9La-28" edge="1">
          <mxGeometry width="50" height="50" relative="1" as="geometry">
            <mxPoint x="80" y="940" as="sourcePoint" />
            <mxPoint x="130" y="890" as="targetPoint" />
          </mxGeometry>
        </mxCell>
        <mxCell id="l1wN7geITij2y17-V9La-34" value="" style="endArrow=none;html=1;rounded=0;entryX=0;entryY=0.5;entryDx=0;entryDy=0;" parent="1" target="l1wN7geITij2y17-V9La-29" edge="1">
          <mxGeometry width="50" height="50" relative="1" as="geometry">
            <mxPoint x="80" y="966" as="sourcePoint" />
            <mxPoint x="223" y="980" as="targetPoint" />
          </mxGeometry>
        </mxCell>
        <mxCell id="l1wN7geITij2y17-V9La-35" value="" style="endArrow=none;html=1;rounded=0;entryX=0;entryY=0.5;entryDx=0;entryDy=0;" parent="1" target="l1wN7geITij2y17-V9La-30" edge="1">
          <mxGeometry width="50" height="50" relative="1" as="geometry">
            <mxPoint x="70" y="1000" as="sourcePoint" />
            <mxPoint x="213" y="1014" as="targetPoint" />
          </mxGeometry>
        </mxCell>
        <mxCell id="l1wN7geITij2y17-V9La-36" value="" style="endArrow=none;html=1;rounded=0;entryX=0.069;entryY=0.763;entryDx=0;entryDy=0;entryPerimeter=0;" parent="1" target="l1wN7geITij2y17-V9La-31" edge="1">
          <mxGeometry width="50" height="50" relative="1" as="geometry">
            <mxPoint x="10" y="1000" as="sourcePoint" />
            <mxPoint x="210" y="1190" as="targetPoint" />
          </mxGeometry>
        </mxCell>
        <mxCell id="l1wN7geITij2y17-V9La-37" value="" style="endArrow=none;html=1;rounded=0;entryX=0;entryY=0.5;entryDx=0;entryDy=0;" parent="1" target="l1wN7geITij2y17-V9La-32" edge="1">
          <mxGeometry width="50" height="50" relative="1" as="geometry">
            <mxPoint x="-40" y="1000" as="sourcePoint" />
            <mxPoint x="230" y="1270" as="targetPoint" />
          </mxGeometry>
        </mxCell>
        <mxCell id="l1wN7geITij2y17-V9La-74" style="edgeStyle=orthogonalEdgeStyle;rounded=0;orthogonalLoop=1;jettySize=auto;html=1;exitX=0.5;exitY=1;exitDx=0;exitDy=0;entryX=0.5;entryY=0;entryDx=0;entryDy=0;fillColor=#0050ef;strokeColor=#001DBC;endArrow=none;startFill=0;" parent="1" source="l1wN7geITij2y17-V9La-39" target="l1wN7geITij2y17-V9La-40" edge="1">
          <mxGeometry relative="1" as="geometry" />
        </mxCell>
        <mxCell id="l1wN7geITij2y17-V9La-39" value="Incluye" style="rhombus;whiteSpace=wrap;html=1;fillColor=#e6d0de;gradientColor=#d5739d;strokeColor=#996185;" parent="1" vertex="1">
          <mxGeometry x="-430" y="1050" width="80" height="80" as="geometry" />
        </mxCell>
        <mxCell id="l1wN7geITij2y17-V9La-75" style="edgeStyle=orthogonalEdgeStyle;rounded=0;orthogonalLoop=1;jettySize=auto;html=1;exitX=1;exitY=0.25;exitDx=0;exitDy=0;entryX=0.5;entryY=0;entryDx=0;entryDy=0;fillColor=#0050ef;strokeColor=#001DBC;endArrow=none;startFill=0;" parent="1" source="l1wN7geITij2y17-V9La-40" target="l1wN7geITij2y17-V9La-53" edge="1">
          <mxGeometry relative="1" as="geometry" />
        </mxCell>
        <mxCell id="l1wN7geITij2y17-V9La-40" value="Instrumento" style="rounded=0;whiteSpace=wrap;html=1;fillColor=#b0e3e6;strokeColor=#0e8088;" parent="1" vertex="1">
          <mxGeometry x="-900" y="1400" width="120" height="60" as="geometry" />
        </mxCell>
        <mxCell id="l1wN7geITij2y17-V9La-41" value="Marca" style="ellipse;whiteSpace=wrap;html=1;" parent="1" vertex="1">
          <mxGeometry x="-1140" y="1550" width="130" height="40" as="geometry" />
        </mxCell>
        <mxCell id="l1wN7geITij2y17-V9La-42" value="Nombre" style="ellipse;whiteSpace=wrap;html=1;" parent="1" vertex="1">
          <mxGeometry x="-1030" y="1660" width="130" height="40" as="geometry" />
        </mxCell>
        <mxCell id="l1wN7geITij2y17-V9La-43" value="Existencia" style="ellipse;whiteSpace=wrap;html=1;" parent="1" vertex="1">
          <mxGeometry x="-816" y="1640" width="130" height="40" as="geometry" />
        </mxCell>
        <mxCell id="l1wN7geITij2y17-V9La-44" value="&amp;nbsp;ID_Instrumento" style="ellipse;whiteSpace=wrap;html=1;" parent="1" vertex="1">
          <mxGeometry x="-1120" y="1430" width="130" height="40" as="geometry" />
        </mxCell>
        <mxCell id="l1wN7geITij2y17-V9La-45" value="Precio" style="ellipse;whiteSpace=wrap;html=1;" parent="1" vertex="1">
          <mxGeometry x="-680" y="1540" width="130" height="40" as="geometry" />
        </mxCell>
        <mxCell id="l1wN7geITij2y17-V9La-46" value="Administrador" style="rounded=0;whiteSpace=wrap;html=1;fillColor=#b0e3e6;strokeColor=#0e8088;" parent="1" vertex="1">
          <mxGeometry x="-304" y="1620" width="120" height="60" as="geometry" />
        </mxCell>
        <mxCell id="l1wN7geITij2y17-V9La-47" value="ID_Administrador" style="ellipse;whiteSpace=wrap;html=1;" parent="1" vertex="1">
          <mxGeometry x="150" y="1555" width="130" height="40" as="geometry" />
        </mxCell>
        <mxCell id="l1wN7geITij2y17-V9La-48" value="Nombre" style="ellipse;whiteSpace=wrap;html=1;" parent="1" vertex="1">
          <mxGeometry x="150" y="1645" width="130" height="40" as="geometry" />
        </mxCell>
        <mxCell id="l1wN7geITij2y17-V9La-49" value="Correo" style="ellipse;whiteSpace=wrap;html=1;" parent="1" vertex="1">
          <mxGeometry x="150" y="1725" width="130" height="40" as="geometry" />
        </mxCell>
        <mxCell id="l1wN7geITij2y17-V9La-50" value="" style="endArrow=none;html=1;rounded=0;exitX=1;exitY=0;exitDx=0;exitDy=0;entryX=0;entryY=0.5;entryDx=0;entryDy=0;" parent="1" target="l1wN7geITij2y17-V9La-47" edge="1">
          <mxGeometry width="50" height="50" relative="1" as="geometry">
            <mxPoint x="-184" y="1620" as="sourcePoint" />
            <mxPoint x="-41" y="1634" as="targetPoint" />
          </mxGeometry>
        </mxCell>
        <mxCell id="l1wN7geITij2y17-V9La-51" value="" style="endArrow=none;html=1;rounded=0;exitX=1;exitY=0.5;exitDx=0;exitDy=0;entryX=0;entryY=0;entryDx=0;entryDy=0;" parent="1" source="l1wN7geITij2y17-V9La-46" target="l1wN7geITij2y17-V9La-48" edge="1">
          <mxGeometry width="50" height="50" relative="1" as="geometry">
            <mxPoint x="-187" y="1650" as="sourcePoint" />
            <mxPoint x="-44" y="1664" as="targetPoint" />
          </mxGeometry>
        </mxCell>
        <mxCell id="l1wN7geITij2y17-V9La-52" value="" style="endArrow=none;html=1;rounded=0;exitX=1;exitY=0;exitDx=0;exitDy=0;entryX=0;entryY=0.5;entryDx=0;entryDy=0;" parent="1" target="l1wN7geITij2y17-V9La-49" edge="1">
          <mxGeometry width="50" height="50" relative="1" as="geometry">
            <mxPoint x="-187" y="1680" as="sourcePoint" />
            <mxPoint x="-44" y="1694" as="targetPoint" />
          </mxGeometry>
        </mxCell>
        <mxCell id="l1wN7geITij2y17-V9La-76" style="edgeStyle=orthogonalEdgeStyle;rounded=0;orthogonalLoop=1;jettySize=auto;html=1;exitX=0.5;exitY=1;exitDx=0;exitDy=0;entryX=0.5;entryY=0;entryDx=0;entryDy=0;fillColor=#0050ef;strokeColor=#001DBC;endArrow=none;startFill=0;" parent="1" source="l1wN7geITij2y17-V9La-53" target="l1wN7geITij2y17-V9La-46" edge="1">
          <mxGeometry relative="1" as="geometry" />
        </mxCell>
        <mxCell id="l1wN7geITij2y17-V9La-53" value="Gestiona" style="rhombus;whiteSpace=wrap;html=1;fillColor=#e6d0de;gradientColor=#d5739d;strokeColor=#996185;" parent="1" vertex="1">
          <mxGeometry x="-450" y="1440" width="80" height="80" as="geometry" />
        </mxCell>
        <mxCell id="l1wN7geITij2y17-V9La-54" value="Pertenece" style="rhombus;whiteSpace=wrap;html=1;fillColor=#e6d0de;gradientColor=#d5739d;strokeColor=#996185;" parent="1" vertex="1">
          <mxGeometry x="-630" y="550" width="80" height="80" as="geometry" />
        </mxCell>
        <mxCell id="l1wN7geITij2y17-V9La-57" style="edgeStyle=orthogonalEdgeStyle;rounded=0;orthogonalLoop=1;jettySize=auto;html=1;exitX=0.5;exitY=1;exitDx=0;exitDy=0;" parent="1" source="l1wN7geITij2y17-V9La-17" target="l1wN7geITij2y17-V9La-17" edge="1">
          <mxGeometry relative="1" as="geometry" />
        </mxCell>
        <mxCell id="l1wN7geITij2y17-V9La-62" value="" style="endArrow=none;html=1;rounded=0;entryX=0;entryY=0.5;entryDx=0;entryDy=0;" parent="1" target="l1wN7geITij2y17-V9La-9" edge="1">
          <mxGeometry width="50" height="50" relative="1" as="geometry">
            <mxPoint x="79" y="360" as="sourcePoint" />
            <mxPoint x="129" y="310" as="targetPoint" />
          </mxGeometry>
        </mxCell>
        <mxCell id="l1wN7geITij2y17-V9La-65" value="" style="endArrow=none;html=1;rounded=0;exitX=0.5;exitY=0;exitDx=0;exitDy=0;" parent="1" source="l1wN7geITij2y17-V9La-10" target="l1wN7geITij2y17-V9La-8" edge="1">
          <mxGeometry width="50" height="50" relative="1" as="geometry">
            <mxPoint x="40" y="440" as="sourcePoint" />
            <mxPoint x="90" y="390" as="targetPoint" />
          </mxGeometry>
        </mxCell>
        <mxCell id="l1wN7geITij2y17-V9La-66" value="" style="endArrow=none;html=1;rounded=0;entryX=0;entryY=0;entryDx=0;entryDy=0;" parent="1" target="l1wN7geITij2y17-V9La-11" edge="1">
          <mxGeometry width="50" height="50" relative="1" as="geometry">
            <mxPoint x="80" y="416" as="sourcePoint" />
            <mxPoint x="210" y="418.33" as="targetPoint" />
          </mxGeometry>
        </mxCell>
        <mxCell id="l1wN7geITij2y17-V9La-77" value="" style="endArrow=none;html=1;rounded=0;exitX=1;exitY=1;exitDx=0;exitDy=0;entryX=0;entryY=0.5;entryDx=0;entryDy=0;" parent="1" source="l1wN7geITij2y17-V9La-44" target="l1wN7geITij2y17-V9La-40" edge="1">
          <mxGeometry width="50" height="50" relative="1" as="geometry">
            <mxPoint x="-950" y="1480" as="sourcePoint" />
            <mxPoint x="-900" y="1430" as="targetPoint" />
          </mxGeometry>
        </mxCell>
        <mxCell id="l1wN7geITij2y17-V9La-78" value="" style="endArrow=none;html=1;rounded=0;entryX=0;entryY=1;entryDx=0;entryDy=0;exitX=1;exitY=0;exitDx=0;exitDy=0;" parent="1" source="l1wN7geITij2y17-V9La-41" target="l1wN7geITij2y17-V9La-40" edge="1">
          <mxGeometry width="50" height="50" relative="1" as="geometry">
            <mxPoint x="-1010" y="1560" as="sourcePoint" />
            <mxPoint x="-910.5" y="1530" as="targetPoint" />
          </mxGeometry>
        </mxCell>
        <mxCell id="l1wN7geITij2y17-V9La-79" value="" style="endArrow=none;html=1;rounded=0;entryX=0.5;entryY=1;entryDx=0;entryDy=0;exitX=0.62;exitY=0.086;exitDx=0;exitDy=0;exitPerimeter=0;" parent="1" source="l1wN7geITij2y17-V9La-42" target="l1wN7geITij2y17-V9La-40" edge="1">
          <mxGeometry width="50" height="50" relative="1" as="geometry">
            <mxPoint x="-960" y="1650" as="sourcePoint" />
            <mxPoint x="-831" y="1486" as="targetPoint" />
          </mxGeometry>
        </mxCell>
        <mxCell id="l1wN7geITij2y17-V9La-80" value="" style="endArrow=none;html=1;rounded=0;entryX=0.75;entryY=1;entryDx=0;entryDy=0;exitX=0.5;exitY=0;exitDx=0;exitDy=0;" parent="1" source="l1wN7geITij2y17-V9La-43" target="l1wN7geITij2y17-V9La-40" edge="1">
          <mxGeometry width="50" height="50" relative="1" as="geometry">
            <mxPoint x="-760" y="1630" as="sourcePoint" />
            <mxPoint x="-785.5" y="1470" as="targetPoint" />
          </mxGeometry>
        </mxCell>
        <mxCell id="l1wN7geITij2y17-V9La-81" value="" style="endArrow=none;html=1;rounded=0;entryX=1;entryY=0.5;entryDx=0;entryDy=0;exitX=0;exitY=0.5;exitDx=0;exitDy=0;" parent="1" source="l1wN7geITij2y17-V9La-45" target="l1wN7geITij2y17-V9La-40" edge="1">
          <mxGeometry width="50" height="50" relative="1" as="geometry">
            <mxPoint x="-816" y="1643" as="sourcePoint" />
            <mxPoint x="-707" y="1440" as="targetPoint" />
          </mxGeometry>
        </mxCell>
        <mxCell id="l1wN7geITij2y17-V9La-82" value="&lt;font style=&quot;font-size: 23px;&quot;&gt;DIAGRAMA ER&lt;/font&gt;" style="text;html=1;align=center;verticalAlign=middle;whiteSpace=wrap;rounded=0;" parent="1" vertex="1">
          <mxGeometry x="-500" y="280" width="220" height="30" as="geometry" />
        </mxCell>
      </root>
    </mxGraphModel>
  </diagram>
</mxfile>
